HIERARCHY
ROOT Hips
{
	OFFSET -0.001795 -0.223333 0.028219
	CHANNELS 6 Xposition Yposition Zposition Zrotation Yrotation Xrotation 
	JOINT LeftUpLeg
	{
		OFFSET 0.069520 -0.091406 -0.006815
		CHANNELS 3 Zrotation Yrotation Xrotation
		JOINT LeftLeg
		{
			OFFSET 0.034277 -0.375199 -0.004496
			CHANNELS 3 Zrotation Yrotation Xrotation
			JOINT LeftFoot
			{
				OFFSET -0.013596 -0.397961 -0.043693
				CHANNELS 3 Zrotation Yrotation Xrotation
				JOINT LeftToe
				{
					OFFSET 0.026358 -0.055791 0.119288
					CHANNELS 3 Zrotation Yrotation Xrotation
					End Site
					{
						OFFSET 0.000000 0.000000 0.000000
					}
				}
			}
		}
	}
	JOINT RightUpLeg
	{
		OFFSET -0.067670 -0.090522 -0.004320
		CHANNELS 3 Zrotation Yrotation Xrotation
		JOINT RightLeg
		{
			OFFSET -0.038290 -0.382569 -0.008850
			CHANNELS 3 Zrotation Yrotation Xrotation
			JOINT RightFoot
			{
				OFFSET 0.015774 -0.398415 -0.042312
				CHANNELS 3 Zrotation Yrotation Xrotation
				JOINT RightToe
				{
					OFFSET -0.025372 -0.048144 0.123348
					CHANNELS 3 Zrotation Yrotation Xrotation
					End Site
					{
						OFFSET 0.000000 0.000000 0.000000
					}
				}
			}
		}
	}
	JOINT Spine
	{
		OFFSET -0.002533 0.108963 -0.026696
		CHANNELS 3 Zrotation Yrotation Xrotation
		JOINT Spine1
		{
			OFFSET 0.005487 0.135180 0.001092
			CHANNELS 3 Zrotation Yrotation Xrotation
			JOINT Spine2
			{
				OFFSET 0.001457 0.052922 0.025425
				CHANNELS 3 Zrotation Yrotation Xrotation
				JOINT Neck
				{
					OFFSET -0.002778 0.213870 -0.042857
					CHANNELS 3 Zrotation Yrotation Xrotation
					JOINT Head
					{
						OFFSET 0.005152 0.064970 0.051349
						CHANNELS 3 Zrotation Yrotation Xrotation
						End Site
						{
							OFFSET 0.000000 0.000000 0.000000
						}
					}
				}
				JOINT LeftShoulder
				{
					OFFSET 0.078845 0.121749 -0.034090
					CHANNELS 3 Zrotation Yrotation Xrotation
					JOINT LeftArm
					{
						OFFSET 0.090977 0.030469 -0.008868
						CHANNELS 3 Zrotation Yrotation Xrotation
						JOINT LeftForeArm
						{
							OFFSET 0.259612 -0.012772 -0.027456
							CHANNELS 3 Zrotation Yrotation Xrotation
							JOINT LeftHand
							{
								OFFSET 0.249234 0.008986 -0.001171
								CHANNELS 3 Zrotation Yrotation Xrotation
								End Site
								{
									OFFSET 0.000000 0.000000 0.000000
								}
							}
						}
					}
				}
				JOINT RightShoulder
				{
					OFFSET -0.081759 0.118833 -0.038615
					CHANNELS 3 Zrotation Yrotation Xrotation
					JOINT RightArm
					{
						OFFSET -0.096012 0.032551 -0.009143
						CHANNELS 3 Zrotation Yrotation Xrotation
						JOINT RightForeArm
						{
							OFFSET -0.253742 -0.013329 -0.021401
							CHANNELS 3 Zrotation Yrotation Xrotation
							JOINT RightHand
							{
								OFFSET -0.255298 0.007772 -0.005559
								CHANNELS 3 Zrotation Yrotation Xrotation
								End Site
								{
									OFFSET 0.000000 0.000000 0.000000
								}
							}
						}
					}
				}
			}
		}
	}
}
MOTION
Frames: 13
Frame Time: 0.050000
0.000000 0.938973 0.000000 -1.437663 -3.747271 3.045748 -1.428083 0.281863 2.450735 4.886197 -0.325465 -2.989565 1.715062 5.015859 4.301693 0.000000 0.000000 0.000000 3.769761 -0.036795 -0.778231 -4.552238 0.654889 2.472394 -1.113238 -5.143942 5.111953 0.000000 0.000000 0.000000 5.079664 0.434547 -5.876334 -2.024737 0.953572 -2.297883 -2.948983 4.501310 8.308301 6.922509 -3.782246 -10.347825 0.000000 0.000000 0.000000 5.918050 -4.717172 1.961950 -9.690361 -9.075253 -0.828768 6.346066 1.511892 0.039943 0.000000 0.000000 0.000000 -4.880049 -1.815028 -0.339048 16.258968 6.177459 -1.168399 -4.768735 6.352734 0.061136 0.000000 0.000000 0.000000 
-0.000724 0.938390 -0.002481 -2.022009 -3.938177 3.448023 -0.237450 0.274208 2.807502 3.971993 -0.136832 -4.557441 1.719456 5.035187 4.368690 0.000000 0.000000 0.000000 4.577748 -0.092638 -0.583863 -4.824258 0.567622 1.079539 -0.907566 -4.819234 5.387619 0.000000 0.000000 0.000000 6.251833 0.547516 -6.622380 -2.300472 1.090979 -0.781947 -4.084463 5.195560 7.104375 7.027513 -3.650935 -10.913796 0.000000 0.000000 0.000000 7.726666 -4.238712 2.032316 -7.821851 -10.544792 -0.708405 4.488804 1.073524 0.007997 0.000000 0.000000 0.000000 -4.977129 -3.046902 -0.749398 15.197966 6.058388 -1.115538 -4.444622 7.500719 0.075205 0.000000 0.000000 0.000000 
-0.001303 0.938276 -0.004596 -1.835633 -4.962674 3.421000 -0.156292 0.278472 2.859671 3.286365 -0.087808 -4.627775 2.103377 5.780581 4.545859 0.000000 0.000000 0.000000 4.229215 -0.010663 -1.157685 -4.713373 0.607679 1.778292 -0.584790 -4.019219 5.015794 0.000000 0.000000 0.000000 6.899028 0.529088 -6.093460 -2.947765 1.339292 -3.661843 -4.206636 7.264752 9.590165 8.158651 -4.308258 -11.276410 0.000000 0.000000 0.000000 9.597133 -4.583795 2.336344 -7.416182 -12.050306 -0.725739 3.514631 3.079021 -0.014517 0.000000 0.000000 0.000000 -4.672278 -3.487115 -1.014733 13.710764 6.771202 -1.103418 -5.098677 5.681139 0.079731 0.000000 0.000000 0.000000 
-0.001801 0.937631 -0.006247 -1.924355 -4.874012 3.680174 0.265256 0.271430 2.959235 2.803995 0.002405 -5.500439 2.015614 5.623642 4.580831 0.000000 0.000000 0.000000 4.419613 0.002948 -1.311396 -4.788579 0.583224 1.387341 -0.627772 -4.070200 4.928455 0.000000 0.000000 0.000000 6.844983 0.631681 -7.110463 -2.507408 1.163264 -2.373313 -4.591870 7.020824 9.353903 7.754682 -4.080374 -10.996447 0.000000 0.000000 0.000000 10.076995 -4.987596 2.466587 -6.404278 -11.255849 -0.708199 3.065715 3.761600 -0.032675 0.000000 0.000000 0.000000 -5.222500 -3.488920 -0.975994 11.416923 6.841267 -0.976192 -3.920109 4.190479 0.100776 0.000000 0.000000 0.000000 
-0.002412 0.937937 -0.007553 -1.678973 -5.030373 3.582411 -0.091910 0.284041 2.939366 3.009928 -0.015989 -5.437886 2.049712 5.738292 4.798405 0.000000 0.000000 0.000000 4.204255 0.068175 -1.753435 -4.816543 0.652881 2.173875 -0.641321 -4.038492 4.766984 0.000000 0.000000 0.000000 6.723705 0.603634 -6.870682 -2.739111 1.262901 -2.630368 -4.372722 7.319993 8.993485 7.909798 -4.296555 -10.326528 0.000000 0.000000 0.000000 10.278522 -5.153746 2.545787 -5.907368 -11.084834 -0.690921 2.463991 3.416811 -0.046949 0.000000 0.000000 0.000000 -5.372260 -3.963329 -1.119888 10.536189 7.102468 -0.919699 -3.529080 4.076602 0.104438 0.000000 0.000000 0.000000 
-0.002820 0.937858 -0.008542 -1.655121 -4.566819 3.602391 -0.146096 0.286961 2.958276 3.235019 -0.009100 -5.737285 1.833118 5.358640 4.849300 0.000000 0.000000 0.000000 4.049734 0.086859 -1.846137 -4.413834 0.613954 2.250716 -0.829502 -4.420264 4.752627 0.000000 0.000000 0.000000 6.612735 0.602583 -6.961625 -2.601012 1.208810 -2.279306 -4.195308 6.886634 8.935671 7.225336 -3.858115 -10.148270 0.000000 0.000000 0.000000 10.308929 -4.486883 2.378328 -5.882111 -11.093598 -0.690384 2.956922 3.546554 -0.033557 0.000000 0.000000 0.000000 -6.336009 -4.187212 -1.117435 10.579892 7.190062 -0.908183 -4.178337 3.952888 0.100387 0.000000 0.000000 0.000000 
-0.003180 0.938380 -0.009513 -1.375703 -4.319563 3.431908 -0.103967 0.301539 3.127673 2.728078 0.035334 -5.927361 1.619286 5.042043 5.136019 0.000000 0.000000 0.000000 3.804952 0.107063 -1.935543 -4.403492 0.645507 2.628202 -0.951652 -4.689011 4.781385 0.000000 0.000000 0.000000 6.547825 0.573390 -6.708026 -2.496225 1.161669 -2.390139 -4.366561 6.716723 8.983793 7.470297 -4.008120 -10.295469 0.000000 0.000000 0.000000 9.998667 -4.416535 2.334020 -5.434502 -10.303527 -0.672965 3.261928 3.089900 -0.020797 0.000000 0.000000 0.000000 -6.085423 -4.296135 -1.164719 9.468884 7.000541 -0.869577 -3.828912 3.862492 0.101405 0.000000 0.000000 0.000000 
-0.003468 0.938629 -0.010415 -1.255070 -4.148744 3.408796 -0.048069 0.289775 3.034589 2.474357 0.048635 -5.879747 1.510431 4.870109 5.231983 0.000000 0.000000 0.000000 3.465190 0.117044 -1.952365 -3.948319 0.588327 2.605750 -0.998745 -4.803700 4.831803 0.000000 0.000000 0.000000 6.619670 0.557149 -6.540858 -2.583036 1.202715 -2.333886 -4.279808 6.740188 8.985964 7.265482 -3.803226 -10.569129 0.000000 0.000000 0.000000 9.701441 -4.363074 2.305889 -5.171570 -9.841844 -0.658591 3.495372 3.081680 -0.015179 0.000000 0.000000 0.000000 -6.138477 -4.162399 -1.129685 9.069948 6.290213 -0.869655 -3.943355 3.486850 0.101582 0.000000 0.000000 0.000000 
-0.003833 0.938919 -0.011217 -1.098280 -4.077072 3.447763 -0.050063 0.280204 2.936592 2.236967 0.065777 -5.917776 1.430264 4.770983 5.405524 0.000000 0.000000 0.000000 3.328404 0.123176 -1.978996 -3.945600 0.577705 2.470804 -1.013627 -4.864976 4.907781 0.000000 0.000000 0.000000 6.682983 0.541238 -6.381301 -2.551191 1.186955 -2.465870 -4.439519 6.883737 9.131899 7.103499 -3.688701 -10.496250 0.000000 0.000000 0.000000 9.503925 -4.471418 2.329731 -4.807289 -9.515350 -0.643007 3.545359 3.865549 -0.019158 0.000000 0.000000 0.000000 -6.156104 -4.139882 -1.139371 8.544568 5.483920 -0.863203 -3.624156 3.157645 0.102120 0.000000 0.000000 0.000000 
-0.004370 0.939062 -0.011988 -0.923423 -3.816181 3.370569 0.111915 0.261948 2.818750 1.737183 0.087123 -5.724771 1.281094 4.511205 5.432595 0.000000 0.000000 0.000000 3.078309 0.127294 -1.956364 -3.708027 0.553248 2.513690 -1.123086 -5.085763 4.896694 0.000000 0.000000 0.000000 6.878443 0.526428 -6.178576 -2.705608 1.254683 -2.768396 -4.514251 6.863661 9.390536 6.941555 -3.529010 -10.721190 0.000000 0.000000 0.000000 9.098701 -4.905636 2.405062 -4.543858 -9.100113 -0.628848 3.675837 4.359075 -0.018074 0.000000 0.000000 0.000000 -5.985107 -3.885945 -1.084757 7.789141 4.664977 -0.832863 -3.419564 2.719922 0.100397 0.000000 0.000000 0.000000 
-0.005008 0.938740 -0.012737 -0.858935 -3.939279 3.346209 0.108309 0.245141 2.637412 1.668388 0.075239 -5.414631 1.372256 4.633261 5.284550 0.000000 0.000000 0.000000 3.010418 0.109166 -1.806077 -3.664350 0.522729 2.187419 -1.078431 -4.948346 4.787588 0.000000 0.000000 0.000000 7.005453 0.518042 -6.040455 -2.833026 1.312911 -2.637220 -4.552207 6.986800 9.207005 6.975142 -3.545060 -10.708552 0.000000 0.000000 0.000000 8.906945 -5.325210 2.500258 -4.549958 -8.642485 -0.616875 3.550140 4.616543 -0.024717 0.000000 0.000000 0.000000 -5.973831 -3.570600 -0.993280 7.437121 4.030494 -0.811338 -3.304302 2.355663 0.098477 0.000000 0.000000 0.000000 
-0.005635 0.938438 -0.013401 -0.834525 -4.094779 3.173261 0.201213 0.255376 2.775373 1.501042 0.083216 -5.359021 1.446107 4.740320 5.196543 0.000000 0.000000 0.000000 2.840754 0.081982 -1.553829 -3.366179 0.471742 1.981482 -1.014739 -4.761155 4.661180 0.000000 0.000000 0.000000 7.097304 0.506562 -5.851361 -2.851271 1.318941 -2.750898 -4.559204 7.222255 9.142668 7.235067 -3.722029 -10.665507 0.000000 0.000000 0.000000 8.663960 -6.053705 2.672672 -4.589478 -8.142793 -0.606104 3.561832 4.747015 -0.026024 0.000000 0.000000 0.000000 -5.954794 -3.181299 -0.887673 7.077603 3.551146 -0.787297 -3.312901 2.132913 0.098183 0.000000 0.000000 0.000000 
-0.006107 0.938031 -0.013860 -0.887142 -4.068885 3.087586 0.281784 0.250416 2.754644 1.526365 0.073224 -5.194277 1.478682 4.746247 4.996195 0.000000 0.000000 0.000000 2.807587 0.047597 -1.261369 -3.143064 0.418370 1.590019 -1.009202 -4.717662 4.595136 0.000000 0.000000 0.000000 7.257224 0.508464 -5.797545 -2.832650 1.314785 -2.494841 -4.561196 7.131649 8.772488 7.378924 -3.860226 -10.460712 0.000000 0.000000 0.000000 8.248051 -6.450968 2.742531 -4.756327 -7.828204 -0.602377 3.694133 4.543639 -0.019630 0.000000 0.000000 0.000000 -6.012236 -2.833488 -0.771539 6.811627 3.395484 -0.759767 -3.447404 1.784648 0.098642 0.000000 0.000000 0.000000 
